<svg width="185" height="39" fill="none" xmlns="http://www.w3.org/2000/svg"><path fill-rule="evenodd" clip-rule="evenodd" d="M28.88 6.735c.931 0 1.726-.328 2.382-.984.656-.656.985-1.45.985-2.383s-.33-1.727-.985-2.384A3.248 3.248 0 0028.88 0c-.933 0-1.727.329-2.383.984a3.247 3.247 0 00-.985 2.384c0 .932.329 1.727.985 2.383.656.656 1.45.984 2.383.984zM.643 37.51H5.41V21.605h15.232v-4.456H5.41V4.974H22.3V.414H.644V37.51zm25.852-25.386h4.766V37.51h-4.766V12.124zM41.727 37.51H36.96V12.123h4.56v4.145h.207c.483-1.38 1.477-2.52 2.979-3.42 1.503-.897 2.962-1.346 4.378-1.346s2.607.207 3.575.621l-1.814 4.456c-.62-.241-1.468-.363-2.538-.363-1.727 0-3.256.683-4.585 2.047-1.33 1.365-1.995 3.152-1.995 5.362V37.51zm14.636-3.005c2.4 2.557 5.518 3.834 9.352 3.834 2.763 0 5.093-.665 6.994-1.995 1.899-1.329 3.264-2.979 4.092-4.947l-4.248-1.762c-1.209 2.901-3.523 4.352-6.942 4.352-2.107 0-3.947-.742-5.518-2.228-1.572-1.485-2.427-3.505-2.564-6.061h20.05l.052-.881c0-4.11-1.132-7.391-3.394-9.844-2.263-2.452-5.276-3.679-9.04-3.679-3.627 0-6.607 1.33-8.938 3.99-2.331 2.66-3.497 5.837-3.497 9.533 0 3.903 1.2 7.132 3.6 9.688zm16.19-12.745c-.103-1.45-.768-2.832-1.994-4.145-1.226-1.312-3.049-1.968-5.466-1.968-1.761 0-3.29.552-4.586 1.657-1.294 1.107-2.184 2.591-2.668 4.456h14.714zm22.33 16.58c-1.934 0-3.67-.415-5.206-1.244-1.538-.83-2.687-1.865-3.446-3.109h-.207v3.523h-4.56V.415h4.767v11.709l-.207 3.523h.207c.76-1.244 1.908-2.28 3.446-3.109 1.536-.829 3.272-1.243 5.206-1.243 3.28 0 6.114 1.295 8.497 3.885s3.575 5.803 3.575 9.637c0 3.834-1.192 7.046-3.575 9.636-2.383 2.59-5.216 3.886-8.497 3.886zm4.922-6.866c-1.59 1.676-3.489 2.513-5.699 2.513-2.246 0-4.154-.829-5.725-2.487-1.572-1.658-2.357-3.886-2.357-6.683 0-2.797.785-5.026 2.357-6.684 1.571-1.658 3.48-2.486 5.725-2.486 2.21 0 4.11.837 5.699 2.512 1.588 1.676 2.384 3.895 2.384 6.658 0 2.764-.796 4.982-2.384 6.657zm12.511 4.534c1.814 1.554 4.068 2.331 6.761 2.331 3.661 0 6.442-1.45 8.342-4.352h.207v3.523h4.559V22.174c0-3.453-1.07-6.13-3.212-8.03-2.142-1.9-4.836-2.85-8.082-2.85-2.832 0-5.112.648-6.839 1.943-1.727 1.296-2.884 2.703-3.471 4.223l4.352 1.865c.415-1.14 1.183-2.038 2.305-2.694 1.122-.656 2.375-.985 3.757-.985 1.865 0 3.436.562 4.714 1.685 1.277 1.122 1.917 2.616 1.917 4.48v.726c-1.796-1.036-4.093-1.554-6.89-1.554-3.144 0-5.786.786-7.927 2.357-2.143 1.572-3.212 3.74-3.212 6.502 0 2.557.906 4.611 2.719 6.166zm7.539-2.02c1.969 0 3.756-.734 5.362-2.203 1.606-1.467 2.409-3.203 2.409-5.207-1.347-1.105-3.368-1.657-6.062-1.657-2.314 0-4.058.5-5.233 1.502-1.174 1.002-1.761 2.176-1.761 3.523 0 1.243.535 2.228 1.606 2.953 1.07.725 2.297 1.088 3.679 1.088zm26.629 4.351c-2.832 0-5.173-.691-7.02-2.072-1.848-1.381-3.204-3.109-4.067-5.181l4.249-1.762c1.347 3.178 3.643 4.767 6.89 4.767 1.485 0 2.702-.328 3.653-.985.949-.656 1.425-1.52 1.425-2.59 0-1.658-1.158-2.78-3.472-3.368l-5.129-1.243c-1.624-.415-3.16-1.2-4.611-2.358-1.45-1.156-2.176-2.72-2.176-4.688 0-2.245.993-4.067 2.979-5.466 1.986-1.4 4.343-2.099 7.072-2.099 2.245 0 4.249.51 6.01 1.529 1.762 1.019 3.022 2.479 3.782 4.378l-4.145 1.71c-.933-2.245-2.867-3.368-5.802-3.368-1.417 0-2.609.294-3.575.88-.968.588-1.451 1.382-1.451 2.384 0 1.45 1.122 2.435 3.368 2.953l5.025 1.192c2.383.552 4.145 1.502 5.285 2.85 1.139 1.346 1.709 2.866 1.709 4.558 0 2.28-.932 4.18-2.797 5.7-1.865 1.519-4.267 2.279-7.202 2.279zm16.294-3.834c2.4 2.557 5.517 3.834 9.351 3.834 2.763 0 5.095-.665 6.994-1.995 1.9-1.329 3.264-2.979 4.094-4.947l-4.249-1.762c-1.209 2.901-3.523 4.352-6.942 4.352-2.107 0-3.947-.742-5.518-2.228-1.572-1.485-2.427-3.505-2.565-6.061h20.051l.051-.881c0-4.11-1.131-7.391-3.393-9.844-2.263-2.452-5.277-3.679-9.041-3.679-3.626 0-6.605 1.33-8.937 3.99-2.331 2.66-3.497 5.837-3.497 9.533 0 3.903 1.2 7.132 3.601 9.688zm16.19-12.745c-.103-1.45-.769-2.832-1.994-4.145-1.227-1.312-3.049-1.968-5.466-1.968-1.762 0-3.29.552-4.585 1.657-1.296 1.107-2.185 2.591-2.669 4.456h14.714z" fill="#041E49" fill-opacity=".7"/></svg>